PathFileType	4	(X/Y/Z)	G:\Shared drives\HPL_Drive\Nord Sprinting Study\Kristen_Nord_test\Trimmed_Nord000002.trc
DataRate	CameraRate	NumFrames	NumMarkers	Units	OrigDataRate	OrigDataStartFrame	OrigNumFrames
200.00	200.00	      6	52	mm	200.00	814	      2170
Frame#	Time	C7			R_Shoulder			L_Shoulder			Sternum			R_humerus			R_elbow_med			R_elbow_lat			R_forearm			R_wrist_radius			R_wrist_ulna			L_humerus			L_elbow_med			L_elbow_lat			L_forearm			L_wrist_radius			L_wrist_ulna			r.ASIS			r.PSIS			r_IC			L.ASIS			L.PSIS			l_IC			r_thigh1			r_thigh2			r_thigh3			r_thigh4			r_thigh5			r_knee			r_mknee			r_shank_antsup			r_sh2			r_sh3			r_sh4			r_ankle			r_mankle			r_calc			r_5meta			r_toe			L_thigh1			L_thigh2			L_thigh3			L_thigh4			L_knee			L_mknee			L_shank_antsup			L_sh2			L_sh3			L_ankle			L_mankle			L_calc			L_5meta			L_toe			
		X1	Y1	Z1	X2	Y2	Z2	X3	Y3	Z3	X4	Y4	Z4	X5	Y5	Z5	X6	Y6	Z6	X7	Y7	Z7	X8	Y8	Z8	X9	Y9	Z9	X10	Y10	Z10	X11	Y11	Z11	X12	Y12	Z12	X13	Y13	Z13	X14	Y14	Z14	X15	Y15	Z15	X16	Y16	Z16	X17	Y17	Z17	X18	Y18	Z18	X19	Y19	Z19	X20	Y20	Z20	X21	Y21	Z21	X22	Y22	Z22	X23	Y23	Z23	X24	Y24	Z24	X25	Y25	Z25	X26	Y26	Z26	X27	Y27	Z27	X28	Y28	Z28	X29	Y29	Z29	X30	Y30	Z30	X31	Y31	Z31	X32	Y32	Z32	X33	Y33	Z33	X34	Y34	Z34	X35	Y35	Z35	X36	Y36	Z36	X37	Y37	Z37	X38	Y38	Z38	X39	Y39	Z39	X40	Y40	Z40	X41	Y41	Z41	X42	Y42	Z42	X43	Y43	Z43	X44	Y44	Z44	X45	Y45	Z45	X46	Y46	Z46	X47	Y47	Z47	X48	Y48	Z48	X49	Y49	Z49	X50	Y50	Z50	X51	Y51	Z51	X52	Y52	Z52	

814	4.065	1199.95093	513.00366	1265.52197	1322.23669	556.62408	1262.11169	1069.00940	560.72369	1272.84705	1196.26868	636.71906	1201.33069	1496.49634	519.73065	1233.94739	1625.97620	536.41302	1146.26245	1620.50977	475.16513	1196.04651	1623.07642	545.08527	1306.08423	1600.88953	638.59802	1377.28198	1639.98242	614.42401	1393.90930	867.33496	531.36658	1249.57312	753.98407	566.02289	1168.13550	750.05536	504.00824	1214.47705	791.95898	584.21692	1333.08301	786.00934	654.93536	1401.39172	841.39063	648.26410	1390.21301	1312.22375	550.05444	740.92987	1264.26001	399.09128	857.83392	1348.81714	507.76544	843.82465	1072.80627	538.36206	737.21313	1149.73486	395.77527	850.89948	1048.21655	503.01193	829.62720	1381.21997	454.68237	508.64029	1380.59766	422.67099	398.03427	1394.74951	367.87634	385.58383	1391.61731	352.41394	543.07996	1373.47156	320.02197	428.54251	1381.30957	350.18356	309.02469	1254.85229	332.56525	319.22943	1397.43726	221.91783	309.43298	1384.15576	102.59531	319.85184	1397.07288	225.66869	387.17801	1385.14185	111.68537	402.30783	1369.36707	-64.32226	375.56308	1292.94263	-53.40155	348.15134	1312.71362	-80.28115	435.46509	1376.44446	-156.40486	286.86948	1342.04907	-134.51657	232.39381	1007.98322	445.05469	506.13666	1009.18054	402.66962	372.14404	1009.39160	331.96307	546.31244	1019.01044	295.40976	414.21497	999.67261	318.12469	326.03714	1127.65955	319.65323	305.62598	985.09930	206.44638	317.96515	1002.60663	218.94478	407.37778	1016.91687	97.94799	411.34964	1024.47681	-86.40770	389.72485	1095.38916	-62.74215	334.66351	1080.67712	-95.14005	433.12173	1012.67584	-172.64966	278.00058	1048.70471	-146.91119	222.07742	
815	4.070	1199.95447	513.38916	1265.42932	1322.26904	557.04590	1261.98010	1069.03772	561.08563	1272.74402	1196.26331	637.10175	1201.23120	1496.53223	520.16528	1233.86084	1625.94189	536.70355	1146.21753	1620.53406	475.63266	1195.96912	1623.07935	545.58234	1305.97412	1600.84509	639.14215	1377.12646	1639.96716	615.04224	1393.84106	867.38611	531.69006	1249.44861	753.98749	566.32172	1168.05469	750.05835	504.28467	1214.43774	792.00415	584.53314	1333.03503	786.05609	655.26050	1401.30298	841.43988	648.61078	1390.05640	1312.19153	550.19427	740.85242	1264.22498	399.30447	857.84546	1348.69983	508.00772	843.66711	1072.83130	538.60510	737.06848	1149.76172	395.99481	850.81683	1048.21973	503.23444	829.58423	1381.22437	454.79111	508.58441	1380.57141	422.76468	398.02493	1394.49731	367.78137	385.23956	1391.59375	352.50223	543.08588	1373.55774	320.17789	428.41583	1381.30591	350.17395	309.02390	1254.85339	332.55374	319.24258	1397.49316	221.96939	309.46384	1384.18896	102.60679	319.86081	1397.08447	225.70613	387.20798	1384.99011	112.00028	401.99728	1369.41650	-64.30174	375.58533	1292.94983	-53.40617	348.24149	1312.79517	-80.25974	435.52924	1376.48486	-156.43390	286.89529	1342.07263	-134.52509	232.47179	1007.99396	445.09570	506.07355	1009.23828	402.73203	372.06924	1009.39850	332.07977	546.35516	1018.99274	295.43213	414.24463	998.67316	318.10611	326.37677	1127.63696	319.63287	305.64014	985.14294	206.48776	317.97986	1002.51050	218.98109	407.35492	1016.82819	97.97193	411.37781	1024.36279	-86.40136	389.71283	1095.29980	-62.73429	334.67300	1080.53870	-95.15175	433.20013	1012.60272	-172.62418	277.99988	1048.65552	-146.94662	222.12129	
816	4.075	1199.96436	513.79340	1265.38013	1322.27173	557.45428	1261.87756	1069.05566	561.43445	1272.63562	1196.29883	637.44379	1201.12537	1496.55566	520.60181	1233.76929	1625.94751	537.16589	1146.13440	1620.53430	476.07529	1195.91528	1623.08765	546.12683	1305.85669	1601.03748	639.26575	1376.83557	1639.92761	615.58539	1393.72742	867.39606	532.01324	1249.34204	753.97644	566.60010	1167.96509	750.09387	504.56082	1214.30042	792.04102	584.86426	1332.96558	786.09155	655.60168	1401.16968	841.44904	648.91272	1389.97900	1312.20313	550.36694	740.72778	1264.20776	399.53220	857.82751	1348.67725	508.26230	843.61139	1072.83716	538.82855	736.96063	1149.76587	396.22247	850.79315	1048.20190	503.45343	829.50043	1381.20593	454.84641	508.55374	1380.58740	422.77728	397.96408	1394.71655	367.96780	385.53958	1391.59778	352.58801	543.07770	1373.57117	320.24362	428.44373	1381.30249	350.20438	309.03287	1254.85779	332.56860	319.25443	1397.50720	221.98990	309.48383	1384.21851	102.62339	319.88696	1397.10095	225.69716	387.18506	1385.00293	112.05833	401.99097	1369.46948	-64.24525	375.54523	1292.93567	-53.40166	348.28561	1312.82288	-80.20795	435.53036	1376.51758	-156.40913	286.97177	1342.15149	-134.56371	232.43121	1007.92957	445.19885	506.04422	1009.21631	402.74976	372.07590	1009.37897	332.16339	546.35632	1018.97021	295.49304	414.23337	999.70392	318.16022	325.99677	1127.64819	319.61874	305.68060	985.08453	206.48354	318.00549	1002.49640	218.97966	407.37180	1016.76538	97.99474	411.35538	1024.32874	-86.39610	389.75046	1095.19275	-62.74926	334.71426	1080.43262	-95.11266	433.25311	1012.54309	-172.65697	278.02780	1048.58582	-146.96872	222.16754	
817	4.080	1200.03333	514.35944	1265.29663	1322.27649	557.83978	1261.76978	1069.05542	561.80499	1272.55029	1196.30383	637.78784	1200.98596	1496.58313	521.00732	1233.69177	1625.96216	537.65216	1146.01062	1620.58496	476.54715	1195.80444	1623.14539	546.56158	1305.69971	1600.82251	640.21118	1376.81616	1639.87817	616.14307	1393.64783	867.56201	532.27771	1249.13184	754.06628	566.76794	1168.49524	750.12598	504.86716	1214.22095	792.08502	585.20776	1332.85938	786.11566	655.95776	1401.04980	841.46881	649.25226	1389.82202	1312.21484	550.53931	740.62195	1264.16467	399.77054	857.80389	1348.67432	508.49838	843.51996	1072.85742	539.00464	736.88416	1149.72778	396.44485	850.78333	1048.32922	503.71506	829.37256	1381.23950	454.89337	508.53616	1380.57556	422.84012	397.95447	1394.45557	367.87494	385.24783	1391.61072	352.68527	543.05255	1373.59668	320.32648	428.44684	1381.28735	350.21292	309.04568	1254.86133	332.56668	319.27045	1397.50000	221.96257	309.48389	1384.17798	102.63510	319.89584	1397.07642	225.68581	387.22586	1385.03040	112.07604	402.00143	1369.47021	-64.24465	375.57074	1292.99011	-53.40436	348.30118	1312.83789	-80.17421	435.57516	1376.54077	-156.41621	287.02090	1342.17651	-134.57594	232.49640	1007.95953	445.29529	505.97342	1009.22705	402.78250	372.03760	1009.34332	332.29874	546.34454	1018.95917	295.52737	414.27429	998.63135	318.15939	326.36929	1127.63269	319.63074	305.64865	985.02740	206.53165	317.92325	1002.44177	219.00034	407.36008	1016.70947	97.98859	411.38733	1024.22937	-86.39544	389.77432	1095.12598	-62.75605	334.70981	1080.35718	-95.06107	433.22327	1012.48145	-172.67120	278.09335	1048.54846	-147.02873	222.15187	
818	4.085	1199.94226	514.67236	1265.27356	1322.38220	558.28778	1261.72217	1069.06079	562.17358	1272.46790	1196.27283	638.12726	1200.87024	1496.60950	521.45673	1233.57739	1625.98682	538.08844	1145.88586	1620.59851	476.99365	1195.73108	1623.12170	547.17133	1305.57776	1600.80627	640.72644	1376.66101	1639.87158	616.70990	1393.43628	867.58307	532.55865	1249.03601	754.07367	567.03412	1168.39124	750.15088	505.12854	1214.14087	792.09711	585.56085	1332.77209	786.15601	656.28992	1400.94495	841.51904	649.59503	1389.67102	1312.18579	550.72632	740.54840	1264.17517	400.02231	857.73242	1348.70911	508.71451	843.41913	1072.83118	539.12793	736.88635	1149.72546	396.65341	850.77606	1048.21851	503.84512	829.40411	1381.24182	455.03012	508.52792	1380.57312	422.90823	397.91302	1394.74634	368.08762	385.50958	1391.62000	352.79465	543.05463	1373.58740	320.36505	428.44739	1381.29431	350.21091	308.99759	1254.87000	332.59552	319.29071	1397.51587	221.98511	309.49542	1384.22937	102.62075	319.94147	1397.14246	225.70792	387.20627	1385.02466	112.11331	402.00330	1369.47595	-64.19737	375.57480	1293.00110	-53.38810	348.33832	1312.84033	-80.12131	435.62570	1376.53149	-156.43611	287.04742	1342.18445	-134.59148	232.53629	1007.91638	445.36670	505.95218	1009.20801	402.80042	372.03403	1009.33197	332.42792	546.34277	1018.95441	295.57343	414.27344	998.62592	318.16684	326.37869	1127.62817	319.61520	305.67310	985.06903	206.51216	318.07935	1002.24164	218.79381	407.25467	1016.64929	97.99322	411.38031	1024.15088	-86.36005	389.75705	1095.05493	-62.75470	334.71680	1080.33765	-95.04718	433.20688	1011.91467	-172.72734	277.98193	1048.46826	-147.08080	222.19969	
819	4.090	1199.97729	515.05225	1265.16797	1322.53931	558.62073	1261.65637	1069.15295	562.38147	1272.34497	1196.27490	638.43756	1200.78967	1496.63867	521.91309	1233.46069	1626.01147	538.52167	1145.71289	1620.68201	477.47156	1195.56592	1623.14441	547.68182	1305.42993	1600.79736	641.26117	1376.51392	1639.87061	617.25122	1393.30847	867.62042	532.94269	1248.96545	754.40381	567.43396	1167.96680	750.18732	505.44208	1214.09033	792.13049	585.88501	1332.67102	786.22162	656.64160	1400.82251	841.56244	649.94818	1389.49780	1312.16687	550.89960	740.44696	1264.13074	400.23874	857.72620	1348.70935	508.92545	843.27875	1072.81665	539.29236	736.77094	1149.82007	396.84503	850.69916	1048.19617	504.06879	829.33160	1381.24329	455.06970	508.46359	1380.54358	422.93787	397.91919	1394.46399	367.97699	385.21490	1391.60205	352.86890	543.07031	1373.59509	320.44446	428.45517	1381.28992	350.22665	309.00641	1254.87061	332.60339	319.29999	1397.49622	221.99428	309.47937	1384.19434	102.63576	319.93494	1397.11292	225.72803	387.21872	1385.02234	112.09558	402.04239	1369.44299	-64.20339	375.59698	1292.94763	-53.36461	348.40530	1312.86560	-80.06158	435.64017	1376.52173	-156.40790	287.11069	1342.14343	-134.62195	232.55264	1007.90179	445.48227	505.91757	1009.21112	402.83878	371.99359	1009.36816	332.49179	546.34070	1018.93207	295.64859	414.31171	998.65881	318.16058	326.37766	1127.64111	319.63580	305.65430	985.10480	206.58005	318.03745	1002.21906	218.80949	407.24500	1016.62579	97.99496	411.40259	1024.08044	-86.35484	389.79779	1094.97046	-62.75615	334.72226	1080.27661	-95.01665	433.20108	1012.36859	-172.69304	278.12332	1048.43726	-147.10443	222.23888	
